<?xml version="1.0" encoding="UTF-8" standalone="no"?><!DOCTYPE svg PUBLIC "-//W3C//DTD SVG 1.1//EN" "http://www.w3.org/Graphics/SVG/1.1/DTD/svg11.dtd"><svg width="100%" height="100%" viewBox="0 0 10625 10625" version="1.1" xmlns="http://www.w3.org/2000/svg" xmlns:xlink="http://www.w3.org/1999/xlink" xml:space="preserve" xmlns:serif="http://www.serif.com/" style="fill-rule:evenodd;clip-rule:evenodd;stroke-linejoin:round;stroke-miterlimit:2;"><g><path d="M2726.48,7299.71l23.463,201.959l-1882.08,2.125l-0,-204.084l1858.62,0Z" style="fill:#cecbca;"/></g><g><path d="M2749.95,7512.1l22.762,201.958l-1904.85,2.125l0,-204.083l1882.08,0Z" style="fill:#cecbca;"/></g><g><path d="M867.865,7287.98c-0,0 507.574,-1931.71 676.517,-2518.33c152.292,-528.796 340.193,-1078.65 -7.982,-1226.01c-266.405,-112.75 -226.016,-228.583 -7.415,-363.212c218.6,-134.633 -21.261,-274.6 -12.267,-345.904c8.994,-71.3 -2.24,-222.821 16.418,-228.184c18.658,-5.362 -3.31,-114.275 -104.495,-104.145c-101.19,10.129 -154.941,-97.542 8.856,-173.255c163.801,-75.712 184.104,-75.579 211.352,42.355c27.248,117.937 13.361,120.866 84.021,31.883c131.652,-165.783 164.717,-65.929 167.24,-91.05c2.528,-25.121 134.138,77 140.205,-70.633c6.066,-147.638 160.469,-104.263 190.299,-0c29.834,104.258 78.821,86.658 321.281,75.325c242.464,-11.338 5782.14,1.15 5782.14,1.15c0,-0 379.866,-175.146 476.092,-76.475c96.226,98.666 60.459,92.5 60.459,92.5c-0,-0 248.039,1.075 248.413,166.783c0.375,165.708 7.204,333.746 7.204,333.746c-0,-0 -36.267,107.046 -205.568,142.721c-169.26,35.671 -10.951,321.841 -10.951,321.841c0,0 7.495,111.138 -149.606,117.267c-157.101,6.125 -2009.88,2.946 -2009.88,2.946l-0.249,121.458c-0,0 -1430.86,-37.146 -1616.52,32.667c-185.665,69.817 -267.484,203.146 -295.34,294.462c-27.815,91.321 -122.458,577.359 -691.828,585.767c-569.366,8.404 -981.559,-47.7 -1099.2,417.146c-117.641,464.846 -439.508,2417.18 -439.508,2417.18l-1739.68,0Z" style="fill:none;"/><path d="M8872.53,2334.02c23.207,0.527 246.112,9.67 246.467,166.752c0.016,6.857 0.043,13.718 0.079,20.571l-7616.88,0c-17.383,-13.618 -41.495,-22.365 -73.563,-19.154c-101.19,10.129 -154.941,-97.542 8.856,-173.255c19.994,-9.241 37.849,-17.353 53.841,-24.258l136.243,0c8.189,15.396 14.515,37.387 21.268,66.613c27.248,117.937 13.361,120.866 84.021,31.883c131.652,-165.783 164.717,-65.929 167.24,-91.05c2.001,-19.883 84.87,39.949 122.347,-7.446l243.326,0c39.511,31.366 114.153,20.176 286.112,12.138c242.464,-11.338 5782.14,1.15 5782.14,1.15c0,-0 11.264,-5.194 30.403,-13.288l500.97,0c17.789,25.226 10.985,28.935 7.124,29.344c-1.274,-0.028 -1.946,-0.031 -1.946,-0.031c-0,-0 0.856,0.147 1.946,0.031Zm-4853.89,1096.42l-2650.38,-0c-45.7,-68.322 -0.473,-139.488 109.745,-216.667l7393.13,-0c18.276,48.68 38.538,85.307 38.538,85.307c0,0 7.495,111.138 -149.606,117.267c-157.101,6.125 -2009.88,2.946 -2009.88,2.946l-0.022,11.147l-2330.32,-0c-61.187,-59.538 -136.963,-57.428 -221.598,-53.593c-57.444,2.603 -120.182,22.701 -179.613,53.593Zm411.64,10.915l2319.87,0l-0.204,99.396c-0,0 -1430.86,-37.146 -1616.52,32.667c-60.36,22.697 -109.744,52.107 -149.867,84.604l-460.526,0c-24.136,-107.51 -55.52,-174.837 -92.748,-216.667Zm95.143,227.58l445.131,-0c-74.855,65.118 -114.677,140.606 -132.473,198.945c-1.475,4.841 -3.137,10.792 -5.048,17.721l-280.533,0c0.304,-29.309 -1.648,-60.889 -6.255,-94.912c-6.127,-45.282 -13.084,-85.695 -20.822,-121.754Zm26.857,227.579l277.748,-0c-13.243,47.974 -36.856,130.043 -84.652,216.667l-258.987,-0c36.382,-52.023 63.054,-122.201 65.891,-216.667Zm-73.864,227.583l260.82,0c-43.756,76.327 -106.592,155.209 -197.848,216.667l-2876.03,-0c18.968,-74.707 35.341,-147.376 47.309,-216.667l1657.42,0c87.449,124.678 228.692,132.631 274.995,147.1c94.863,29.642 606.754,-12.329 606.754,-12.329c0,-0 137.544,-17.986 226.584,-134.771Zm-1115.65,-10.916l-1648.24,-0c12.874,-77.173 20.107,-150.023 19.16,-216.667l1565.68,-0c0.759,11.49 1.879,23.448 3.386,35.891c9.378,77.418 31.336,136.058 60.012,180.776Zm-64.019,-227.58l-1565.29,0c-2.35,-83.646 -18.081,-157.148 -52.372,-216.666l1678.37,-0c-36.215,38.717 -66.025,104.599 -60.701,216.666Zm71.832,-227.579l-1696.09,0c-31.225,-49.266 -76.183,-88.188 -138.088,-114.388c-79.575,-33.678 -131.777,-67.631 -160.034,-102.279l2622.2,0c-96.732,54.92 -181.785,137.206 -216.419,216.667l-255.406,0c-15.504,-23.47 -32.575,-37.828 -56.272,-44.183c-0,-0 -52.757,1.843 -99.892,44.183Zm162.898,10.913l244.229,-0c-8.897,23.525 -13.181,46.678 -11.835,68.666c3.17,51.779 4.293,100.882 13.613,148l-152.19,0c-45.077,-102.109 -68.274,-172.562 -93.817,-216.666Zm98.665,227.579l149.659,-0c15.74,69.18 51.112,134.147 139.174,197.141c10.061,7.197 18.541,13.697 25.577,19.526l-86.407,-0c-24.457,-14.668 -49.636,-32.904 -71.983,-54.017c-76.65,-72.421 -110.583,-61.096 -155.716,-161.971c-0.102,-0.227 -0.203,-0.453 -0.304,-0.679Zm247.267,227.583l79.481,0c43.973,42.172 -10.845,36.658 -79.481,0Zm-2652.65,1809.73c19.395,-72.55 38.813,-145.055 58.037,-216.667l1593.65,-0c-12.915,71.126 -25.947,143.679 -38.944,216.667l-1612.74,-0Zm1653.67,-227.584l-1592.7,0c19.74,-73.517 39.262,-146.046 58.328,-216.667l1574.26,0c-13.046,69.853 -26.401,142.453 -39.892,216.667Zm41.932,-227.579l-1573.36,0c20.201,-74.797 39.873,-147.387 58.733,-216.667l1555.95,0c-13.243,67.88 -27.093,140.596 -41.324,216.667Zm43.457,-227.583l-1555.11,-0c20.953,-76.928 40.875,-149.662 59.37,-216.667l1539.68,-0c-13.522,63.636 -28.297,136.685 -43.944,216.667Zm46.27,-227.579l-1539,-0c22.676,-82.075 43.138,-155.263 60.636,-216.667l1532.48,-0c-7.066,20.14 -13.456,41.435 -19.155,63.954c-10.228,40.414 -21.999,92.072 -34.969,152.713Zm58.06,-227.58l-1533.31,0c2.582,-9.035 5.096,-17.8 7.539,-26.283c18.26,-63.402 37.031,-127.106 55.329,-190.383l1626.35,-0c-67.157,49.623 -119.755,119.164 -155.908,216.666Zm171.388,-227.583l-1638.67,0c21.127,-73.23 41.542,-145.83 59.715,-216.667l2862.01,0c-94.304,59.03 -217.341,99.594 -378.332,101.971c-390.069,5.758 -706.369,-18.762 -904.725,114.696Zm5625.62,-1365.48l-7373.19,-0c11.098,-7.422 22.778,-14.9 35.016,-22.437c107.82,-66.405 104.108,-134.108 73.734,-194.23l7291,0c-73.358,35.417 -54.335,138.429 -26.559,216.667Zm62.342,-227.581l-7332.62,0c-32.192,-57.179 -84.452,-106.771 -80.165,-140.76c2.583,-20.474 3.497,-47.563 3.931,-75.907l7602.94,0c1.42,46.433 2.618,75.907 2.618,75.907c-0,-0 -34.994,103.29 -196.702,140.76Zm193.756,-227.572l-7602.46,-0c0.777,-67.292 -0.274,-137.745 12.342,-141.372c11.434,-3.286 7.611,-45.461 -20.352,-75.295l7606.35,-0c0.543,80.756 2.432,159.593 4.12,216.667Zm-7500.75,-451.363l-111.307,0c62.387,-25.266 92.102,-27.326 111.307,0Zm6761.99,0c106.62,-43.514 351.13,-131.246 425.629,-54.854c23.327,23.918 38.897,41.676 49.1,54.854l-474.729,0Zm-6356.56,0c6.839,-12.481 11.36,-30.179 12.374,-54.854c6.066,-147.638 160.469,-104.263 190.299,-0c6.989,24.422 15.028,42.158 26.36,54.854l-229.033,0Zm-804.095,3648.4l1613.71,-0c-12.839,72.164 -25.637,144.705 -38.246,216.667l-1633.28,-0c19.091,-71.661 38.434,-144.165 57.812,-216.667Zm-60.72,227.583l1634.28,0c-12.819,73.21 -25.437,145.768 -37.698,216.667l-1654.21,0c18.774,-70.679 38.062,-143.206 57.629,-216.667Zm-60.527,227.579l1655.22,0c-12.879,74.516 -25.353,147.132 -37.242,216.667l-1675.45,0c18.379,-69.367 37.63,-141.952 57.474,-216.667Zm-60.365,227.58l1676.48,-0c-13.092,76.605 -25.454,149.361 -36.843,216.666l-1696.97,0c17.756,-67.171 36.996,-139.892 57.335,-216.666Zm-60.22,227.583l1698.01,-0c-13.776,81.449 -26.081,154.642 -36.469,216.667l-1718.74,-0c16.327,-61.915 35.633,-135.058 57.202,-216.667Zm-60.184,227.975l1719.83,-0c-21.356,127.577 -34.108,204.929 -34.108,204.929l-1739.68,-0c-0,0 20.233,-77.003 53.965,-204.929Z" style="fill:#e6e6e6;"/></g></svg>